<svg width="10" height="12" viewBox="0 0 10 12" fill="none" xmlns="http://www.w3.org/2000/svg">
<path d="M3.17969 6.5625H2.32031C2.2487 6.5625 2.18424 6.54102 2.12695 6.49805C2.08398 6.44076 2.0625 6.3763 2.0625 6.30469V5.44531C2.0625 5.3737 2.08398 5.31641 2.12695 5.27344C2.18424 5.21615 2.2487 5.1875 2.32031 5.1875H3.17969C3.2513 5.1875 3.30859 5.21615 3.35156 5.27344C3.40885 5.31641 3.4375 5.3737 3.4375 5.44531V6.30469C3.4375 6.3763 3.40885 6.44076 3.35156 6.49805C3.30859 6.54102 3.2513 6.5625 3.17969 6.5625ZM5.5 6.30469V5.44531C5.5 5.3737 5.47135 5.31641 5.41406 5.27344C5.37109 5.21615 5.3138 5.1875 5.24219 5.1875H4.38281C4.3112 5.1875 4.24674 5.21615 4.18945 5.27344C4.14648 5.31641 4.125 5.3737 4.125 5.44531V6.30469C4.125 6.3763 4.14648 6.44076 4.18945 6.49805C4.24674 6.54102 4.3112 6.5625 4.38281 6.5625H5.24219C5.3138 6.5625 5.37109 6.54102 5.41406 6.49805C5.47135 6.44076 5.5 6.3763 5.5 6.30469ZM7.5625 6.30469V5.44531C7.5625 5.3737 7.53385 5.31641 7.47656 5.27344C7.43359 5.21615 7.3763 5.1875 7.30469 5.1875H6.44531C6.3737 5.1875 6.30924 5.21615 6.25195 5.27344C6.20898 5.31641 6.1875 5.3737 6.1875 5.44531V6.30469C6.1875 6.3763 6.20898 6.44076 6.25195 6.49805C6.30924 6.54102 6.3737 6.5625 6.44531 6.5625H7.30469C7.3763 6.5625 7.43359 6.54102 7.47656 6.49805C7.53385 6.44076 7.5625 6.3763 7.5625 6.30469ZM5.5 8.36719V7.50781C5.5 7.4362 5.47135 7.37891 5.41406 7.33594C5.37109 7.27865 5.3138 7.25 5.24219 7.25H4.38281C4.3112 7.25 4.24674 7.27865 4.18945 7.33594C4.14648 7.37891 4.125 7.4362 4.125 7.50781V8.36719C4.125 8.4388 4.14648 8.50326 4.18945 8.56055C4.24674 8.60352 4.3112 8.625 4.38281 8.625H5.24219C5.3138 8.625 5.37109 8.60352 5.41406 8.56055C5.47135 8.50326 5.5 8.4388 5.5 8.36719ZM3.4375 8.36719V7.50781C3.4375 7.4362 3.40885 7.37891 3.35156 7.33594C3.30859 7.27865 3.2513 7.25 3.17969 7.25H2.32031C2.2487 7.25 2.18424 7.27865 2.12695 7.33594C2.08398 7.37891 2.0625 7.4362 2.0625 7.50781V8.36719C2.0625 8.4388 2.08398 8.50326 2.12695 8.56055C2.18424 8.60352 2.2487 8.625 2.32031 8.625H3.17969C3.2513 8.625 3.30859 8.60352 3.35156 8.56055C3.40885 8.50326 3.4375 8.4388 3.4375 8.36719ZM7.5625 8.36719V7.50781C7.5625 7.4362 7.53385 7.37891 7.47656 7.33594C7.43359 7.27865 7.3763 7.25 7.30469 7.25H6.44531C6.3737 7.25 6.30924 7.27865 6.25195 7.33594C6.20898 7.37891 6.1875 7.4362 6.1875 7.50781V8.36719C6.1875 8.4388 6.20898 8.50326 6.25195 8.56055C6.30924 8.60352 6.3737 8.625 6.44531 8.625H7.30469C7.3763 8.625 7.43359 8.60352 7.47656 8.56055C7.53385 8.50326 7.5625 8.4388 7.5625 8.36719ZM9.625 2.78125V10.3438C9.625 10.6302 9.52474 10.8737 9.32422 11.0742C9.1237 11.2747 8.88021 11.375 8.59375 11.375H1.03125C0.744792 11.375 0.501302 11.2747 0.300781 11.0742C0.10026 10.8737 0 10.6302 0 10.3438V2.78125C0 2.49479 0.10026 2.2513 0.300781 2.05078C0.501302 1.85026 0.744792 1.75 1.03125 1.75H2.0625V0.632812C2.0625 0.561198 2.08398 0.503906 2.12695 0.460938C2.18424 0.403646 2.2487 0.375 2.32031 0.375H3.17969C3.2513 0.375 3.30859 0.403646 3.35156 0.460938C3.40885 0.503906 3.4375 0.561198 3.4375 0.632812V1.75H6.1875V0.632812C6.1875 0.561198 6.20898 0.503906 6.25195 0.460938C6.30924 0.403646 6.3737 0.375 6.44531 0.375H7.30469C7.3763 0.375 7.43359 0.403646 7.47656 0.460938C7.53385 0.503906 7.5625 0.561198 7.5625 0.632812V1.75H8.59375C8.88021 1.75 9.1237 1.85026 9.32422 2.05078C9.52474 2.2513 9.625 2.49479 9.625 2.78125ZM8.59375 10.2148V3.8125H1.03125V10.2148C1.03125 10.2435 1.04557 10.2721 1.07422 10.3008C1.10286 10.3294 1.13151 10.3438 1.16016 10.3438H8.46484C8.49349 10.3438 8.52214 10.3294 8.55078 10.3008C8.57943 10.2721 8.59375 10.2435 8.59375 10.2148Z" fill="#A1A1A1"/>
</svg>
