<svg width="10" height="11" viewBox="0 0 10 11" fill="none" xmlns="http://www.w3.org/2000/svg">
<path d="M0 5.17188V1.1875C0 0.927083 0.0911458 0.705729 0.273438 0.523438C0.455729 0.341146 0.677083 0.25 0.9375 0.25H4.92188C5.18229 0.25 5.40365 0.341146 5.58594 0.523438L9.72656 4.66406C9.90885 4.84635 10 5.06771 10 5.32812C10 5.58854 9.90885 5.8099 9.72656 5.99219L5.74219 9.97656C5.5599 10.1589 5.33854 10.25 5.07812 10.25C4.81771 10.25 4.59635 10.1589 4.41406 9.97656L0.273438 5.83594C0.0911458 5.65365 0 5.43229 0 5.17188ZM2.1875 1.5C1.92708 1.5 1.70573 1.59115 1.52344 1.77344C1.34115 1.95573 1.25 2.17708 1.25 2.4375C1.25 2.69792 1.34115 2.91927 1.52344 3.10156C1.70573 3.28385 1.92708 3.375 2.1875 3.375C2.44792 3.375 2.66927 3.28385 2.85156 3.10156C3.03385 2.91927 3.125 2.69792 3.125 2.4375C3.125 2.17708 3.03385 1.95573 2.85156 1.77344C2.66927 1.59115 2.44792 1.5 2.1875 1.5Z" fill="#716754"/>
</svg>
